<svg width="16" height="16" viewBox="0 0 16 16" fill="none" xmlns="http://www.w3.org/2000/svg">
<path fill-rule="evenodd" clip-rule="evenodd" d="M5.78177 11.7276C5.97517 11.9122 6.23273 12.0145 6.50009 12.0128C6.76744 12.0111 7.02369 11.9056 7.21477 11.7186L12.4868 6.53763C12.6279 6.40041 12.7404 6.23645 12.8175 6.05532C12.8947 5.87419 12.935 5.67951 12.9361 5.48264C12.9372 5.28578 12.8991 5.09065 12.824 4.90866C12.7489 4.72667 12.6384 4.56144 12.4988 4.42263C12.3602 4.28292 12.195 4.17249 12.013 4.09789C11.8309 4.02329 11.6357 3.98605 11.439 3.98838C11.2422 3.99072 11.048 4.03257 10.8677 4.11147C10.6875 4.19036 10.525 4.30468 10.3898 4.44763L6.84577 8.12363C6.80152 8.17043 6.74804 8.20753 6.6887 8.23258C6.62936 8.25763 6.56547 8.27008 6.50107 8.26914C6.43667 8.2682 6.37317 8.25389 6.31459 8.22712C6.25601 8.20035 6.20363 8.1617 6.16077 8.11363L5.57377 7.47263C5.44438 7.32722 5.28648 7.20996 5.10987 7.12813C4.93326 7.0463 4.74171 7.00166 4.54713 6.99697C4.35254 6.99228 4.15907 7.02765 3.97872 7.10087C3.79838 7.1741 3.63501 7.28362 3.49877 7.42263C3.35963 7.56093 3.24952 7.72564 3.17491 7.90708C3.10029 8.08852 3.06267 8.28303 3.06426 8.47921C3.06584 8.67538 3.1066 8.86926 3.18413 9.04947C3.26166 9.22968 3.37442 9.39259 3.51577 9.52863L5.78177 11.7276Z" fill="#11AF22"/>
</svg>
