<svg width="67" height="67" viewBox="0 0 67 67" fill="none" xmlns="http://www.w3.org/2000/svg">
<circle cx="33.5" cy="33.5" r="33.5" fill="#F2F2F2"/>
<path d="M33.5 11C35.5781 11 37.5703 11.2656 39.4766 11.7969C41.3828 12.3281 43.1797 13.0781 44.8672 14.0469C46.5547 15.0156 48.0703 16.1875 49.4141 17.5625C50.7578 18.9375 51.9297 20.4609 52.9297 22.1328C53.9297 23.8047 54.6875 25.5938 55.2031 27.5C55.7188 29.4062 55.9844 31.4062 56 33.5C56 35.5781 55.7344 37.5703 55.2031 39.4766C54.6719 41.3828 53.9219 43.1797 52.9531 44.8672C51.9844 46.5547 50.8125 48.0703 49.4375 49.4141C48.0625 50.7578 46.5391 51.9297 44.8672 52.9297C43.1953 53.9297 41.4062 54.6875 39.5 55.2031C37.5938 55.7188 35.5938 55.9844 33.5 56C31.4219 56 29.4297 55.7344 27.5234 55.2031C25.6172 54.6719 23.8203 53.9219 22.1328 52.9531C20.4453 51.9844 18.9297 50.8125 17.5859 49.4375C16.2422 48.0625 15.0703 46.5391 14.0703 44.8672C13.0703 43.1953 12.3125 41.4062 11.7969 39.5C11.2812 37.5938 11.0156 35.5938 11 33.5C11 31.4219 11.2656 29.4297 11.7969 27.5234C12.3281 25.6172 13.0781 23.8203 14.0469 22.1328C15.0156 20.4453 16.1875 18.9297 17.5625 17.5859C18.9375 16.2422 20.4609 15.0703 22.1328 14.0703C23.8047 13.0703 25.5938 12.3125 27.5 11.7969C29.4062 11.2812 31.4062 11.0156 33.5 11ZM33.5 53C35.2812 53 37 52.7656 38.6562 52.2969C40.3125 51.8281 41.8672 51.1719 43.3203 50.3281C44.7734 49.4844 46.0938 48.4688 47.2812 47.2812C48.4688 46.0938 49.4844 44.7812 50.3281 43.3438C51.1719 41.9062 51.8281 40.3516 52.2969 38.6797C52.7656 37.0078 53 35.2812 53 33.5C53 31.7188 52.7656 30 52.2969 28.3438C51.8281 26.6875 51.1719 25.1328 50.3281 23.6797C49.4844 22.2266 48.4688 20.9062 47.2812 19.7188C46.0938 18.5312 44.7812 17.5156 43.3438 16.6719C41.9062 15.8281 40.3516 15.1719 38.6797 14.7031C37.0078 14.2344 35.2812 14 33.5 14C31.7031 14 29.9766 14.2344 28.3203 14.7031C26.6641 15.1719 25.1172 15.8281 23.6797 16.6719C22.2422 17.5156 20.9219 18.5312 19.7188 19.7188C18.5156 20.9062 17.5 22.2188 16.6719 23.6562C15.8438 25.0938 15.1875 26.6484 14.7031 28.3203C14.2188 29.9922 13.9844 31.7188 14 33.5C14 35.2812 14.2344 37 14.7031 38.6562C15.1719 40.3125 15.8281 41.8672 16.6719 43.3203C17.5156 44.7734 18.5312 46.0938 19.7188 47.2812C20.9062 48.4688 22.2188 49.4844 23.6562 50.3281C25.0938 51.1719 26.6484 51.8281 28.3203 52.2969C29.9922 52.7656 31.7188 53 33.5 53ZM32 23H35V38H32V23ZM32 41H35V44H32V41Z" fill="#EF3061"/>
</svg>
