<svg width="16" height="16" viewBox="0 0 16 16" fill="none" xmlns="http://www.w3.org/2000/svg">
<g opacity="0.5">
<path fill-rule="evenodd" clip-rule="evenodd" d="M9.53539 4.63781L9.99706 4.0696C10.1748 3.85084 10.4843 3.82491 10.6986 3.99904C10.9067 4.16808 10.9463 4.48709 10.7732 4.7002L4.90019 11.9285C4.72244 12.1472 4.41294 12.1732 4.19862 11.999C3.99057 11.83 3.95093 11.511 4.12407 11.2979L4.53713 10.7895C2.49619 9.94784 1.24383 8.65737 1.24383 8.65737C0.832937 8.29378 0.821607 7.70063 1.24383 7.34072C1.24383 7.34072 4.00158 4.49904 8.00158 4.49904C8.5363 4.49904 9.04878 4.54982 9.53539 4.63781ZM11.4095 5.18573C13.4826 6.02668 14.7565 7.34072 14.7565 7.34072C15.167 7.7043 15.1784 8.29745 14.7565 8.65737C14.7565 8.65737 12.0016 11.499 8.00158 11.499C7.43178 11.499 6.88718 11.4414 6.37218 11.3425L7.17594 10.3601C7.43392 10.4501 7.71117 10.499 7.99984 10.499C9.38056 10.499 10.4998 9.37975 10.4998 7.99904C10.4998 7.53337 10.3725 7.09744 10.1508 6.72416L11.4095 5.18573ZM7.88404 9.49464L9.44314 7.58908C9.48007 7.71939 9.49984 7.8569 9.49984 7.99904C9.49984 8.82747 8.82827 9.49904 7.99984 9.49904C7.96088 9.49904 7.92226 9.49756 7.88404 9.49464Z" fill="#333333"/>
</g>
</svg>
