<svg width="30" height="30" viewBox="0 0 30 30" fill="none" xmlns="http://www.w3.org/2000/svg">
<path d="M27.5 10.76V20.9375C27.5001 21.9752 27.1031 22.9735 26.3904 23.7278C25.6778 24.482 24.7035 24.935 23.6675 24.9938L23.4375 25H6.5625C5.52483 25.0001 4.52646 24.6031 3.77221 23.8904C3.01796 23.1778 2.565 22.2035 2.50625 21.1675L2.5 20.9375V10.76L14.565 17.08C14.6992 17.1503 14.8485 17.187 15 17.187C15.1515 17.187 15.3008 17.1503 15.435 17.08L27.5 10.76ZM6.5625 5H23.4375C24.4445 4.99988 25.4156 5.37374 26.1625 6.04908C26.9095 6.72442 27.379 7.6531 27.48 8.655L15 15.1925L2.52 8.655C2.6169 7.69289 3.05381 6.7969 3.75219 6.12808C4.45056 5.45926 5.3646 5.06148 6.33 5.00625L6.5625 5H23.4375H6.5625Z" fill="#0099E1"/>
</svg>
