<svg width="67" height="67" viewBox="0 0 67 67" fill="none" xmlns="http://www.w3.org/2000/svg">
<circle cx="33.5" cy="33.5" r="33.5" fill="#F2F2F2"/>
<path d="M32.625 13C21.252 13 12 22.252 12 33.625C12 44.998 21.252 54.25 32.625 54.25C43.998 54.25 53.25 44.998 53.25 33.625C53.25 22.252 43.998 13 32.625 13ZM32.625 16.4375C42.1383 16.4375 49.8125 24.1117 49.8125 33.625C49.8125 43.1383 42.1383 50.8125 32.625 50.8125C23.1117 50.8125 15.4375 43.1383 15.4375 33.625C15.4375 24.1117 23.1117 16.4375 32.625 16.4375ZM32.625 23.3125C28.8438 23.3125 25.75 26.4062 25.75 30.1875H29.1875C29.1875 28.2677 30.7052 26.75 32.625 26.75C34.5448 26.75 36.0625 28.2677 36.0625 30.1875C36.062 30.8298 35.8594 31.4557 35.4834 31.9764C35.1073 32.4971 34.5769 32.8863 33.9673 33.0887L33.2695 33.3019C32.5826 33.5333 31.9853 33.974 31.5614 34.5622C31.1376 35.1503 30.9085 35.8563 30.9062 36.5812V38.7812H34.3438V36.5795L35.0416 36.3647C36.3366 35.9294 37.4629 35.0996 38.2624 33.9918C39.062 32.884 39.4948 31.5537 39.5 30.1875C39.5 26.4062 36.4062 23.3125 32.625 23.3125ZM30.9062 40.5V43.9375H34.3438V40.5H30.9062Z" fill="#0099E1"/>
</svg>
