<svg width="32" height="32" viewBox="0 0 32 32" fill="none" xmlns="http://www.w3.org/2000/svg">
<path d="M27.6954 4.29123C27.5604 4.15691 27.3899 4.0639 27.2039 4.02316C27.0179 3.98242 26.8241 3.99563 26.6454 4.06123L4.64535 12.0612C4.45562 12.1332 4.29227 12.2612 4.177 12.4282C4.06173 12.5952 4 12.7933 4 12.9962C4 13.1992 4.06173 13.3973 4.177 13.5643C4.29227 13.7313 4.45562 13.8593 4.64535 13.9312L13.2354 17.3612L19.5754 11.0012L20.9854 12.4112L14.6154 18.7812L18.0554 27.3712C18.1295 27.5573 18.2577 27.7168 18.4235 27.8292C18.5894 27.9415 18.7851 28.0014 18.9854 28.0012C19.1874 27.9971 19.3835 27.9318 19.5478 27.814C19.712 27.6962 19.8367 27.5313 19.9054 27.3412L27.9054 5.34123C27.9735 5.16431 27.9899 4.97166 27.9527 4.78576C27.9156 4.59985 27.8263 4.42834 27.6954 4.29123Z" fill="white"/>
</svg>
