<svg width="67" height="67" viewBox="0 0 67 67" fill="none" xmlns="http://www.w3.org/2000/svg">
<circle cx="33.5" cy="33.5" r="33.5" fill="#F2F2F2"/>
<path d="M33.5 12C21.5923 12 12 21.5923 12 33.5C12 45.4077 21.5923 55 33.5 55C45.4077 55 55 45.4077 55 33.5C55 31.1879 54.6891 28.8808 53.8622 26.7292L51.1763 29.3654C51.5071 30.6885 51.694 32.0148 51.694 33.5C51.694 43.5918 43.5934 51.6923 33.5017 51.6923C23.4099 51.6923 15.3077 43.5918 15.3077 33.5C15.3077 23.4082 23.4082 15.3077 33.5 15.3077C38.4615 15.3077 42.9187 17.284 46.0593 20.4247L48.3846 18.0994C44.5808 14.2922 39.2885 12 33.5 12ZM52.157 19.0801L33.5 37.7388L26.4199 30.657L24.0417 33.0353L32.3109 41.3045L33.5 42.4407L34.6891 41.3045L54.5353 21.4583L52.157 19.0801Z" fill="#07469C"/>
</svg>
